<?xml version="1.0" standalone="no"?>
<!DOCTYPE svg PUBLIC "-//W3C//DTD SVG 1.1//EN" "http://www.w3.org/Graphics/SVG/1.1/DTD/svg11.dtd" >
<svg xmlns="http://www.w3.org/2000/svg" xmlns:xlink="http://www.w3.org/1999/xlink" version="1.1">
<metadata>
Created by FontForge 20190801 at Thu Jul 29 22:16:40 2021
 By www-data

Created by iconfont

</metadata>
<defs>
<font id="iconfont" horiz-adv-x="1024" >
  <font-face 
    font-family="iconfont"
    font-weight="400"
    font-stretch="normal"
    units-per-em="1024"
    panose-1="2 0 5 3 0 0 0 0 0 0"
    ascent="896"
    descent="-128"
    bbox="1.41818 -182 1088.13 896.069"
    underline-thickness="0"
    underline-position="10"
    unicode-range="U+E607-E8D5"
  />
<missing-glyph 
 />
    <glyph glyph-name=".notdef" 
 />
    <glyph glyph-name=".null" horiz-adv-x="0" 
 />
    <glyph glyph-name="nonmarkingreturn" horiz-adv-x="341" 
 />
    <glyph glyph-name="bofang1" unicode="&#xe607;" 
d="M862 565l-471 298q-50 31 -107.5 32.5t-110 -27t-81.5 -78t-30 -109.5v-594q1 -60 30 -109.5t81.5 -78t110 -27t107.5 32.5l471 298q47 30 73 77.5t26 103.5t-26 103.5t-73 77.5z" />
    <glyph glyph-name="dianshizhiboguankanshipinbofangmeiti" unicode="&#xe60a;" 
d="M664 309l-227 131q-10 5 -20 5h-1q-16 0 -28 -12t-13 -29l2 -239q0 -10 4 -18q5 -11 15 -17t22 -6q9 0 18 4l225 109q11 6 18 17q8 14 3.5 30.5t-18.5 24.5zM438 198v169l160 -92zM861 679h-140l61 122q5 12 1 23.5t-15 17.5q-6 3 -15 3q-18 -1 -27 -17l-75 -149h-273
l-78 153q-10 17 -28 17q-7 0 -14 -3q-11 -6 -15 -18t2 -24l64 -125h-146q-65 -1 -107 -44t-44 -106v-459q2 -65 44.5 -107t106.5 -44h698q65 2 107 44.5t44 106.5v459q-2 63 -44.5 106t-106.5 44zM950 69q-1 -38 -26.5 -63t-62.5 -26h-699q-38 1 -63 26t-26 63v460
q1 37 26 62.5t63 26.5h699q37 -1 62 -26.5t26 -62.5z" />
    <glyph glyph-name="youhuiquan" unicode="&#xe60b;" 
d="M821 757q50 -1 83 -34t35 -83v-149q-1 -14 -10 -23t-22 -9q-32 -1 -53 -22t-21 -53t21 -53t53 -22q13 0 22 -9t10 -23v-149q-2 -50 -35 -83t-83 -34h-618q-50 1 -83 34t-35 83v149q1 14 10 23t22 9q32 1 53 22t21 53t-21 53t-53 22q-13 0 -22 9t-10 23v149q2 50 35 83
t83 34h618zM821 693h-618q-22 0 -37.5 -15.5t-16.5 -37.5v-121q47 -12 76.5 -48.5t29.5 -86.5t-29.5 -86.5t-76.5 -48.5v-121q1 -22 16.5 -37.5t37.5 -15.5h618q22 0 37.5 15.5t16.5 37.5v121q-47 12 -76.5 48.5t-29.5 86.5t29.5 86.5t76.5 48.5v121q-1 22 -16.5 37.5
t-37.5 15.5zM385 569q11 8 23.5 7t21.5 -12l82 -98l82 98q12 14 30 11t24 -20t-5 -31l-72 -87h48q13 0 22 -8.5t10 -21.5v-2q-1 -13 -10 -22t-22 -10h-70v-42h70q13 -1 22 -9t10 -21v-2q-1 -14 -10 -23t-22 -9h-70v-43q0 -13 -8.5 -22t-21.5 -10h-2q-13 0 -22 9t-10 23v43
h-80q-13 0 -22 8.5t-10 21.5v2q1 13 10 22t22 10h80v42h-80q-13 1 -22 9t-10 21v2q1 14 10 23t22 9h48l-72 87q-8 10 -7.5 22t9.5 21z" />
    <glyph glyph-name="mima" unicode="&#xe619;" 
d="M829 -95h-661q-71 2 -117 48t-48 117v397q2 71 48 117t117 48h661q71 -2 117.5 -48t47.5 -117v-397q-1 -71 -47.5 -117t-117.5 -48zM168 566q-43 -1 -70.5 -28.5t-28.5 -70.5v-397q1 -43 28.5 -70.5t70.5 -28.5h661q43 1 70.5 28.5t28.5 70.5v397q-1 43 -28.5 70.5
t-70.5 28.5h-661zM499 186q-16 1 -17 16v165q1 16 16.5 16t16.5 -16v-165q-1 -15 -16 -16zM499 169q-15 0 -24 9t-9 24v165q0 16 9 24.5t24 8.5t24 -8.5t9 -24.5v-165q0 -15 -9 -24t-24 -9zM499 202v-16v16zM763 566h-528v66q2 112 77 186.5t187 77.5q112 -3 186.5 -77.5
t77.5 -186.5v-66zM301 632h396q-2 84 -58 140t-140 58q-84 -2 -140 -58t-58 -140z" />
    <glyph glyph-name="dongman" unicode="&#xe61e;" 
d="M989 613q-31 39 -77 56.5t-96 9.5q-44 -8 -76 -33.5t-50 -63.5q-79 32 -170.5 32.5t-185.5 -30.5q-20 39 -53.5 64t-77.5 32q-51 7 -96 -12t-75 -60q-29 -43 -30.5 -93t24.5 -96q21 -34 51.5 -55.5t67.5 -28.5l-6 -23l-4 -19l-3 -18l-2 -19l-2 -19v-19q0 -42 8 -81
t22.5 -75t35 -68t47 -59t57 -48.5t65 -37t72 -23.5t77.5 -8t77.5 8t72 23.5t65 37t57 48.5t47 59t35.5 68t22.5 75t7.5 81v19l-2 19l-2 19l-3 18l-4 18l-6 24q38 8 70 30.5t52 58.5q25 47 21.5 97t-33.5 92zM945 455q-12 -24 -32 -40t-55 -19q-14 0 -25.5 -9t-14.5 -26
q-1 -8 0.5 -18t2.5 -13l6 -18l4 -18l4 -19l3 -18l1 -19l1 -20q0 -36 -6.5 -69.5t-19 -64.5t-30.5 -58.5t-40.5 -50.5t-48.5 -42t-55.5 -32t-61.5 -20t-66 -7t-66 7t-61.5 20t-55.5 32t-48.5 42t-40 50.5t-30 58.5t-19.5 64.5t-7 69.5l1 20l1 19l3 18l4 19l8 34q3 11 6 20
q6 19 -3 33t-30 14q-37 0 -58.5 16.5t-35 40t-15.5 55.5t19 64q19 26 48 38t61 7.5t55.5 -23.5t33.5 -48q10 -19 28 -18t22 4q96 34 188 33.5t169 -36.5q12 -7 28.5 -5.5t23.5 18.5q10 30 32 49.5t54 25t61.5 -5.5t49.5 -36q22 -31 21 -63.5t-14 -55.5z" />
    <glyph glyph-name="jiantoushang" unicode="&#xe62c;" 
d="M910 100q-27 0 -45 17l-313 369l-15 8q-7 4 -19 4q-5 0 -14.5 -3.5t-14.5 -8.5l-330 -364q-17 -17 -39.5 -17.5t-39.5 12.5q-17 17 -18 39t12 40l330 364q22 26 53.5 39t66 12.5t64 -15.5t55.5 -41l313 -364q16 -18 13.5 -40t-19.5 -40q-9 -5 -20 -8t-20 -3z" />
    <glyph glyph-name="jiantouyou" unicode="&#xe62d;" 
d="M313 -100q-24 0 -40.5 17.5t-14 39.5t20.5 40l364 330q17 17 17 34t-17 34l-370 313q-17 18 -19.5 40t14.5 39.5t39 20t40 -13.5l364 -313q26 -22 41.5 -53.5t15.5 -66.5q0 -68 -51 -119l-364 -330q-9 -5 -20 -8t-20 -4z" />
    <glyph glyph-name="jiantouxia" unicode="&#xe62e;" 
d="M518 100q-69 0 -120 51l-324 364q-17 18 -14.5 40t20 39t40 14.5t39.5 -19.5l330 -364q5 -5 12.5 -8t16.5 -4q17 0 34 17l313 364q17 18 39.5 20.5t40 -15t20 -39.5t-14.5 -39l-313 -365q-43 -58 -119 -56q3 0 2 0h-2z" />
    <glyph glyph-name="sousuo" unicode="&#xe632;" 
d="M474 12q-173 4 -289 120t-120 290q4 173 120 289t289 120q174 -4 290 -120t120 -289q-4 -174 -120 -290t-290 -120zM474 80q145 4 241.5 100.5t100.5 241.5q-4 144 -100.5 240.5t-241.5 100.5q-144 -4 -240.5 -100.5t-100.5 -240.5q4 -145 100.5 -241.5t240.5 -100.5z
M727 26q-10 11 -8.5 25t12 22t25 7.5t22.5 -10.5l65 -79q10 -11 8.5 -25t-12 -22t-25 -7.5t-22.5 10.5z" />
    <glyph glyph-name="tuichuquanping" unicode="&#xe633;" 
d="M908 32l-163 164h136q13 0 22.5 9t9.5 22.5t-9.5 22.5t-22.5 10h-224q-9 0 -15 -6.5t-6 -15.5v-224q0 -13 9 -22t22.5 -9t22.5 9t10 22v135l163 -163q10 -9 22.5 -8.5t21.5 10t9.5 21.5t-8.5 22v1zM367 260h-224q-13 -1 -22.5 -10t-9.5 -22.5t9.5 -22.5t22.5 -9h136
l-163 -164q-9 -9 -8.5 -21.5t9.5 -22t21.5 -10t22.5 8.5l163 162v-136q1 -13 10 -22t22.5 -9t22.5 9t9 22v225q0 9 -6 15.5t-15 6.5zM880 570h-136l164 164q13 13 8.5 31t-22.5 22.5t-31 -8.5l-164 -164v136q-1 14 -10 23t-22.5 9t-22.5 -9t-9 -23v-224q0 -9 6 -15t15 -6
h224q14 0 23 9t9 22.5t-9 22.5t-23 10zM357 783q-13 0 -22 -9t-10 -23v-136l-164 164q-13 13 -31 8.5t-22.5 -22.5t8.5 -31l164 -164h-136q-14 -1 -23 -10t-9 -22.5t9 -22.5t23 -9h224q9 0 15 6t6 15v224q0 14 -9 23t-23 9z" />
    <glyph glyph-name="yanzhengma" unicode="&#xe634;" 
d="M918 629q-56 4 -104 19l-30 10q-33 10 -84 37l-25 14q-16 9 -32 20l-25 16l-26 19q-41 31 -80 68q-38 -37 -80 -68l-26 -19l-24 -16q-16 -11 -33 -20l-25 -14q-50 -27 -83 -37l-30 -10q-48 -15 -104 -19l3 -61h1q5 -68 17.5 -147t32.5 -136l5 -14q48 -122 126 -206
t177 -117v-1q26 -8 43 -11q18 3 44 11v1q99 33 177 117t126 206l5 14q20 57 32.5 136t17.5 147v0zM870 587v-10l-1 -6q-5 -64 -16.5 -140t-31.5 -132l-4 -13q-45 -114 -116.5 -191t-159.5 -107l-5 -2q-12 -4 -24 -6q-11 2 -23 6l-5 2q-89 30 -160 107t-116 191l-5 13
q-19 56 -31 132t-16 140l-1 6l-1 14q38 6 70 16q15 5 32 11q38 11 90 39l27 15q16 9 34 21l26 17l27 20q27 20 52 42q25 -22 52 -42l27 -19l26 -18q19 -12 34 -20l27 -15q52 -28 91 -40q16 -6 30 -10q34 -11 71 -17v-4zM711 485l-235 -241l-120 123q-6 7 -14.5 7t-15 -6.5
t-6.5 -15.5t6 -15l135 -139q7 -6 15.5 -6t14.5 6l250 256q6 6 6 15t-6.5 15.5t-15 6.5t-14.5 -6z" />
    <glyph glyph-name="youxiang" unicode="&#xe641;" 
d="M902 682h-780q-30 0 -49.5 -20t-20.5 -50v-458q1 -30 20.5 -50t49.5 -21h780q30 1 49.5 21t20.5 50v458q-1 30 -20.5 50t-49.5 20zM934 612v-458q-1 -11 -7 -18l-258 240l263 245q1 -4 2 -9zM90 154v458q1 5 2 9l263 -245l-258 -240q-6 7 -7 18zM512 282l-388 362h776z
M383 350l129 -121l129 121l245 -228h-748z" />
    <glyph glyph-name="pingjia" unicode="&#xe642;" 
d="M491 198q-2 -2 -5 -3l-177 -79q-39 -13 -61 9t-10 61l85 173q2 2 3.5 4.5t3.5 4.5l423 422q19 19 44.5 19t45.5 -19l75 -75q19 -19 19 -45.5t-19 -45.5l-422 -422q-2 -3 -5 -4zM361 337l-83 -166q-8 -24 14 -15l173 76zM496 262l317 317l-106 105l-316 -316zM843 609
l45 45q7 7 7 15.5t-7 14.5l-75 76q-7 6 -15.5 6t-14.5 -6l-46 -45zM896 442q0 9 6 15t15 6t15 -6t7 -15v-335q0 -30 -11.5 -57.5t-32.5 -48.5t-48.5 -32.5t-57.5 -11.5h-554q-30 0 -57.5 11.5t-48.5 32.5t-32.5 48.5t-11.5 57.5v554q0 30 11.5 57.5t32.5 48.5t48.5 32.5
t57.5 11.5h338q9 -1 15 -7t6 -15t-6 -15t-15 -6h-338q-46 -1 -76 -31t-31 -76v-554q0 -22 8 -41.5t23 -34.5t34.5 -23t41.5 -8h554q46 1 76 31t31 76v335z" />
    <glyph glyph-name="qiandao" unicode="&#xe643;" 
d="M704 725h-384v-53q0 -9 -6 -15t-15 -6t-15 6t-7 15v53h-42q-46 -1 -76 -31t-31 -75v-86h768v86q-1 45 -31 75t-76 31h-42v-53q-1 -9 -7 -15t-15 -6t-15 6t-6 15v53zM747 768h42q30 0 57.5 -11.5t48.5 -32.5t32.5 -48t11.5 -57v-512q0 -30 -11.5 -57.5t-32.5 -48.5
t-48.5 -32.5t-57.5 -11.5h-554q-30 0 -57.5 11.5t-48.5 32.5t-32.5 48.5t-11.5 57.5v512q0 30 11.5 57t32.5 48t48.5 32.5t57.5 11.5h42v32q1 9 7 15t15 6t15 -6t6 -15v-32h384v32q0 9 6 15t15 6t15 -6t7 -15v-32zM896 491h-768v-384q0 -22 8 -41.5t23 -34.5t34.5 -23
t41.5 -8h554q46 1 76 31t31 76v384zM327 254q-6 6 -6.5 14.5t5.5 15t14.5 7.5t14.5 -5l99 -87q6 -6 14.5 -5.5t14.5 7.5l180 197q7 7 15 7t15 -6t7.5 -14t-5.5 -15l-180 -198q-19 -19 -44 -20.5t-46 15.5z" />
    <glyph glyph-name="guanbi" unicode="&#xe64d;" 
d="M511 457l-398 398q-16 15 -36 15t-35.5 -15.5t-15.5 -35.5t15 -36l398 -398l-398 -398q-10 -10 -13.5 -23t0 -26.5t13 -23t23 -13.5t26.5 -0.5t23 13.5l398 398l398 -398q16 -15 36.5 -15t36 15.5t15.5 36t-15 36.5l-398 398l398 398q15 16 15 36.5t-15.5 35.5t-36 15
t-36.5 -15z" />
    <glyph glyph-name="huanyihuan" unicode="&#xe653;" 
d="M839 522q-44 100 -131 157.5t-196 58.5q-151 -3 -251 -103t-103 -251q3 -151 103 -251t251 -103q111 1 199.5 61.5t130.5 163.5q9 20 31 23.5t36 -14t6 -38.5q-51 -126 -159 -200t-244 -75q-184 4 -306.5 126.5t-126.5 306.5q4 184 126.5 306.5t306.5 126.5
q109 -1 201.5 -49.5t152.5 -134.5v86q1 17 12 28t28 11t28 -11t11 -28v-237q0 -16 -11.5 -27.5t-27.5 -11.5h-197q-17 0 -28 11.5t-11 28t11 27.5t28 12h130z" />
    <glyph glyph-name="app" unicode="&#xe654;" 
d="M512 830q-190 -5 -315.5 -130.5t-130.5 -315.5q5 -190 130.5 -315.5t315.5 -130.5q190 5 315.5 130.5t130.5 315.5q-5 190 -130.5 315.5t-315.5 130.5v0zM514 -24q-173 4 -288 119t-119 287q4 173 119 288t288 119q172 -4 287 -119t119 -288q-4 -172 -119 -287t-287 -119
v0zM229 276l79 207h30l84 -207h-31l-24 63h-87l-22 -63h-29zM288 361h70l-21 57q-10 26 -15 43q-4 -20 -11 -39zM444 276v207h78q21 0 32 -2q15 -3 25 -10t16.5 -20t6.5 -28q0 -26 -17 -44.5t-61 -18.5h-53v-84h-27zM471 385h54q26 0 37.5 9.5t11.5 27.5q0 13 -6.5 22.5
t-17.5 12.5q-7 2 -26 2h-53v-74zM637 276v207h78q20 0 31 -2q15 -3 25.5 -10t17 -20t6.5 -28q0 -26 -17 -44.5t-61 -18.5h-53v-84h-27zM664 385h54q26 0 37 9.5t11 27.5q0 13 -6.5 22.5t-16.5 12.5q-7 2 -26 2h-53v-74z" />
    <glyph glyph-name="daoxu" unicode="&#xe65a;" 
d="M626 649h-469q-14 0 -23 9t-9 23t9 23t23 9h469q13 0 22.5 -9t9.5 -23t-9.5 -23t-22.5 -9zM626 462h-469q-14 0 -23 9.5t-9 23t9 23t23 9.5h469q13 0 22.5 -9.5t9.5 -23t-9.5 -23t-22.5 -9.5zM626 276h-469q-14 0 -23 9t-9 23t9 23t23 9h469q13 0 22.5 -9t9.5 -23
t-9.5 -23t-22.5 -9zM626 89h-469q-14 0 -23 9.5t-9 23t9 23t23 9.5h469q13 0 22.5 -9.5t9.5 -23t-9.5 -23t-22.5 -9.5zM790 65q-8 0 -15 4q-17 9 -18 29v602q0 13 9.5 22.5t23 9.5t23 -9.5t9.5 -22.5v-538l86 65q12 8 24.5 6.5t21 -13t6.5 -24t-13 -21.5l-138 -103
q-9 -7 -19 -7z" />
    <glyph glyph-name="bofang" unicode="&#xe66a;" 
d="M216 -22q-43 1 -68 31t-26 80v672q1 50 26 80t68 31q32 0 66 -20l528 -336q30 -17 45.5 -40.5t15.5 -50.5t-15.5 -50.5t-46.5 -41.5l-526 -335q-36 -20 -67 -20zM216 817q-26 -2 -33 -22t-6 -34v-672q-1 -15 6 -35t33 -22q17 1 39 13l526 335q36 21 35.5 45t-34.5 44
l-528 337q-21 11 -38 11zM486 249q-8 0 -11.5 5.5t-2 11t5.5 8.5l8 5q5 3 10 1.5t8 -6.5t2 -10t-6 -8l-7 -5q-4 -2 -7 -2zM287 124q-8 0 -11.5 5.5t-2 11t5.5 8.5l153 96q5 3 10 1.5t8 -6t2 -10t-6 -8.5l-152 -96q-4 -2 -7 -2z" />
    <glyph glyph-name="order" unicode="&#xe66c;" 
d="M332 734q-9 3 -18.5 1.5t-16.5 -8.5l-192 -192q-9 -10 -9 -23t9.5 -22.5t22.5 -9.5t23 9l137 138v-531q0 -14 9 -23t23 -9t23 9t9 23v608q0 10 -5.5 18t-14.5 12zM919 279q-10 9 -23 9t-23 -9l-105 -106v531q0 14 -9 23t-23 9t-23 -9t-9 -23v-608q0 -10 5.5 -18t14.5 -12
q6 -2 12 -2q13 0 23 9l160 160q9 10 9 23t-9 23z" />
    <glyph glyph-name="fullscreen-expand" unicode="&#xe675;" 
d="M149 501q14 1 23 10t9 22v137l188 -188q10 -9 23.5 -9t23.5 9.5t10 22t-10 22.5l-188 188h135q13 0 22 9t9 22.5t-9 22.5t-22 10h-214q-7 0 -10 -2q-13 -7 -20 -18q-2 -6 -2 -12v-214q1 -13 10 -22t22 -10zM875 267q-14 -1 -23 -10t-9 -22v-137l-201 201q-10 9 -22.5 9
t-22 -9.5t-9.5 -22t9 -22.5l201 -201h-137q-13 0 -22 -9t-9 -22.5t9 -22.5t22 -10h214q7 0 10 2q14 6 17 18q3 6 3 10v216q1 13 -8 22t-22 10zM382 301l-201 -201v135q0 13 -9 22t-22.5 9t-22.5 -9t-10 -22v-214q0 -7 2 -10q6 -14 18 -17q6 -3 10 -3h214q13 1 22 10t9 22.5
t-9 22.5t-22 9h-137l201 201q9 10 9 22.5t-9.5 22t-21 9t-21.5 -8.5zM905 757v0q-7 14 -18 17q-6 3 -10 3h-216q-13 -1 -22 -10t-9 -22.5t9 -22.5t22 -9h137l-188 -188q-9 -10 -9 -22.5t9.5 -22t23 -9.5t23.5 9l188 188v-135q0 -13 9.5 -22t22.5 -9t22 9t10 22v214
q-2 7 -4 10z" />
    <glyph glyph-name="link" unicode="&#xe676;" 
d="M862 732q-69 65 -159.5 66t-160.5 -64l-68 -68q-10 -10 -10 -22.5t10 -22.5t22 -10t22 10l69 68q50 47 115 46.5t115 -48.5q48 -51 48.5 -116.5t-46.5 -116.5l-117 -119q-26 -26 -59.5 -38.5t-69 -10t-66.5 19.5t-53 46q-8 11 -20.5 12.5t-24 -6.5t-13 -20.5t6.5 -23.5
q31 -41 74 -65t93 -27h17q45 0 87 17t75 51l117 120q63 70 62 161.5t-66 160.5zM506 145l-67 -68q-50 -47 -115 -46.5t-115 48.5q-48 50 -48.5 116t46.5 116l117 120q26 26 59.5 38.5t69 10t66.5 -19.5t53 -46q8 -11 20.5 -13t24 6.5t13 21t-6.5 23.5q-31 41 -73.5 64.5
t-93 27t-96 -13.5t-81.5 -52l-117 -120q-64 -70 -63.5 -161.5t65.5 -160.5q34 -33 75.5 -49.5t86 -16.5t85.5 16t75 48l67 68q9 10 9 22.5t-9 22.5q-12 8 -24.5 8t-22.5 -10z" />
    <glyph glyph-name="menu" unicode="&#xe677;" 
d="M171 683zM107 683q0 -28 18 -46t45.5 -18t45.5 18t18 45.5t-18 45.5t-45.5 18t-45.5 -18t-18 -45zM171 384zM107 384q0 -27 18 -45t45.5 -18t45.5 18t18 45t-18 45t-45.5 18t-45.5 -18t-18 -45zM171 85zM107 85q0 -27 18 -45t45.5 -18t45.5 18t18 45.5t-18 45.5t-45.5 18
t-45.5 -18t-18 -46zM896 117h-533q-14 0 -23 -9t-9 -22.5t9 -22.5t23 -10h533q13 1 22.5 10t9.5 22.5t-9.5 22.5t-22.5 9zM363 651h533q13 0 22.5 9t9.5 22.5t-9.5 22.5t-22.5 10h-533q-14 -1 -23 -10t-9 -22.5t9 -22.5t23 -9zM896 416h-533q-14 0 -23 -9.5t-9 -22.5
t9 -22.5t23 -9.5h533q13 0 22.5 9.5t9.5 22.5t-9.5 22.5t-22.5 9.5z" />
    <glyph glyph-name="discover" unicode="&#xe67e;" 
d="M544 608q-1 41 -28 68t-68 27t-68 -27t-27 -68t27 -68t68 -27t68 27t28 68zM416 608q0 14 9 23t23 9t23 -9t9 -23t-9 -23t-23 -9t-23 9t-9 23zM304 448q-34 -1 -56.5 -23.5t-22.5 -56.5t22.5 -56.5t56.5 -22.5t56.5 22.5t22.5 56.5t-22.5 56.5t-56.5 23.5zM304 352
q-7 0 -11.5 4.5t-4.5 11.5t4.5 11.5t11.5 4.5t11.5 -4.5t4.5 -11.5t-4.5 -11.5t-11.5 -4.5zM640 160zM576 160q1 27 19 45t45 18t45 -18t18 -45t-18 -45t-45 -18t-45 18t-19 45zM888 627q30 46 47 84t17 65q0 17 -5.5 28t-11.5 17q-30 25 -75.5 11.5t-85.5 -37.5
q-11 -7 -14.5 -19t3 -24t19 -15.5t24.5 3.5q37 20 56.5 26.5t25.5 6.5q1 -32 -77 -145t-253 -288q-172 -167 -289.5 -246.5t-152.5 -79.5q0 8 11 36t47 83l4 6l2 8q7 8 8 18t-4 19q-28 46 -42 96.5t-14 103.5q4 163 112.5 271.5t271.5 112.5q89 0 169 -39q12 -6 24 -1.5
t18 16.5t2 24t-16 18q-93 46 -197 46q-190 -5 -316.5 -131.5t-131.5 -316.5q0 -57 14.5 -112t41.5 -105l-1 -1q-51 -77 -63 -125.5t13 -73.5q17 -16 43 -15q30 0 68.5 16.5t81.5 44.5q56 -38 119 -57.5t131 -19.5q190 5 316.5 131.5t131.5 316.5q0 66 -18.5 127.5
t-53.5 115.5zM512 0q-104 1 -192 52q100 73 180.5 146.5t102.5 95.5q68 67 131 138t114 138q47 -86 48 -186q-4 -163 -112.5 -271.5t-271.5 -112.5z" />
    <glyph glyph-name="zanting" unicode="&#xe693;" 
d="M269 782q36 0 66.5 -18t48.5 -48.5t18 -66.5v-530q0 -36 -18 -66.5t-48.5 -48.5t-66.5 -18t-66.5 18t-48.5 48.5t-18 66.5v530q0 36 18 66.5t48.5 48.5t66.5 18zM755 782q36 0 66.5 -18t48.5 -48.5t18 -66.5v-530q0 -36 -18 -66.5t-48.5 -48.5t-66.5 -18t-66.5 18
t-48.5 48.5t-18 66.5v530q0 36 18 66.5t48.5 48.5t66.5 18z" />
    <glyph glyph-name="RectangleCopy" unicode="&#xe6a9;" horiz-adv-x="1040" 
d="M763 174l-245 76l335 381zM902 721q-11 7 -22 2l-724 -365q-15 4 -23.5 -9t2 -25t24.5 -5l228 -75q12 -4 21.5 4.5t7 20.5t-14.5 16l-180 58l578 292l-335 -381l1 -1q-6 -5 -6 -13v-177q0 -9 6 -15t15 -6t15 6t7 15v148l271 -84q9 -3 17 2t10 14l110 557q2 13 -8 21z" />
    <glyph glyph-name="RectangleCopy1" unicode="&#xe6ad;" 
d="M832 493q9 0 15 6t6 15v105q-1 45 -31 75t-75 31h-470q-45 -1 -75 -31t-31 -75v-342q1 -45 31 -75t75 -31h470q45 1 75 31t31 75v107q0 9 -6 15t-15 6t-15 -6t-6 -15v-107q-1 -27 -19 -45t-45 -19h-470q-27 1 -45 19t-19 45v342q1 27 19 45t45 19h470q27 -1 45 -19
t19 -45v-105q0 -9 6 -15t15 -6zM793 85h-560q-9 0 -15 -6t-6 -15t6 -15t15 -6h560q9 0 15 6t6 15t-6 15t-15 6z" />
    <glyph glyph-name="redpacket" unicode="&#xe6e0;" 
d="M516 544q-3 0 -6 1l-356 64q-11 2 -18.5 10.5t-7.5 20.5v96q1 41 28 68t68 28h576q41 -1 68 -28t28 -68v-96q0 -12 -7.5 -20.5t-18.5 -10.5l-348 -64zM192 667l324 -58l316 58v69q0 14 -9 23t-23 9h-576q-14 0 -23 -9t-9 -23v-69zM800 -64h-576q-41 1 -68 28t-28 68v480
q0 14 9 23t23 9t23 -9t9 -23v-480q0 -14 9 -23t23 -9h576q14 0 23 9t9 23v480q0 14 9 23t23 9t23 -9t9 -23v-480q-1 -41 -28 -68t-68 -28zM608 256q13 0 22 9t9 23t-9 23t-22 9h-52l76 73q10 10 10 22.5t-9.5 22.5t-22 10t-22.5 -9l-77 -73l-73 73q-10 9 -22.5 9t-22.5 -9.5
t-10 -22t10 -22.5l74 -74h-51q-14 0 -23 -9t-9 -23t9 -23t23 -9h64v-32h-64q-14 0 -23 -9t-9 -23t9 -23t23 -9h64v-64q0 -14 9 -23t23 -9t23 9t9 23v64h64q13 0 22 9t9 23t-9 23t-22 9h-64v32h64z" />
    <glyph glyph-name="huo" unicode="&#xe713;" 
d="M512 -128q-74 0 -143 23t-128 67q-79 60 -125.5 145t-54 184t26.5 190t103 161q7 7 17 6.5t16 -8.5q0 -1 10.5 -12.5t29.5 -22.5q44 -26 88 1q24 36 33 78q16 95 -68 175q-10 11 -3.5 24.5t21.5 12.5q4 0 40.5 -10.5t86.5 -36.5q58 -32 97 -77q47 -55 62 -125
q9 -10 32.5 -27.5t55.5 -19.5v0q43 0 82 50q6 7 15 8t16 -6q102 -98 131.5 -230.5t-21.5 -264.5q-54 -131 -166.5 -207t-253.5 -78zM121 203q39 -123 136.5 -200t225.5 -88q129 -7 236 55.5t164 178.5q53 117 33.5 239.5t-107.5 217.5q-46 -48 -100 -48v0q-54 4 -87.5 32
t-36.5 33t-4 10q-13 63 -55 111q-33 39 -85 68q-23 13 -48 22q29 -46 34.5 -87t-1.5 -72q-10 -44 -25.5 -70t-18 -28.5l-4.5 -4.5q-43 -25 -78 -22t-59 19q-19 11 -35 27q-72 -82 -94.5 -185.5t9.5 -207.5zM421 62q-3 0 -6 1q-89 29 -131 80.5t-55 100.5q-14 52 -13 88t2 40
q2 9 8.5 14t15.5 3.5t14 -8.5t4 -16q-1 -2 -1.5 -33.5t11.5 -76.5q35 -114 158 -151q7 -3 11 -9.5t3 -14.5t-7 -13t-14 -5z" />
    <glyph glyph-name="fanhui" unicode="&#xe716;" 
d="M671 816l-394 -394q-16 -17 -16 -38t16 -38l394 -394q17 -16 38 -16t37.5 16.5t16.5 37.5t-16 38l-356 356l356 356q16 17 16 38.5t-16.5 37.5t-37.5 16t-38 -16z" />
    <glyph glyph-name="new" unicode="&#xe71e;" 
d="M963 450q-5 163 -131.5 271.5t-316.5 112.5q-190 -4 -316.5 -112.5t-131.5 -271.5q1 -89 45.5 -166.5t127.5 -134.5q11 -7 24 -5t20.5 13.5t5 24t-13.5 20.5q-70 48 -107.5 112t-37.5 136q4 135 112.5 225.5t271.5 94.5q163 -4 271.5 -94.5t112.5 -225.5
q-4 -136 -112.5 -226.5t-271.5 -93.5l-5 -1q-12 1 -22 -4t-14 -17q-6 -13 -32 -33t-62 -40q12 42 10 58t-7 21q-11 15 -30 15q-13 0 -22 -9t-10 -23q0 -8 4 -15q-2 -15 -11 -42.5t-22 -57.5q-3 -10 -1 -19t9 -16q9 -9 22 -9q7 0 13 2q32 14 92.5 48.5t95.5 77.5
q187 7 311 114.5t129 269.5zM343 291q7 -3 14 -3q19 0 29 17l71 140l92 -142q9 -14 26 -15h1q16 0 26 14l129 189q7 11 5 23.5t-13.5 20.5t-24 5.5t-20.5 -13.5l-101 -149l-96 148q-10 15 -28.5 14t-26.5 -17l-97 -188q-6 -13 -2 -25t16 -19z" />
    <glyph glyph-name="xiaqu" unicode="&#xe771;" 
d="M656 430l-324 247q-19 15 -41 12.5t-37.5 -19t-15.5 -39.5v-494q0 -23 15.5 -39.5t37.5 -19t41 12.5l324 247q15 11 20 28.5t0 35t-20 28.5zM781 115v329v175q1 24 -1 36q-3 21 -15.5 29.5t-27 6.5t-24 -12.5t-9.5 -25.5v-504q-1 -24 1 -36q4 -21 16.5 -29.5t26.5 -6.5
t23.5 12.5t9.5 25.5z" />
    <glyph glyph-name="shangqu" unicode="&#xe772;" 
d="M364 430l324 247q19 15 41 12.5t37.5 -19t15.5 -39.5v-494q0 -23 -15.5 -39.5t-37.5 -19t-41 12.5l-324 247q-15 11 -20 28.5t0 35t20 28.5zM239 115v329v175q-1 24 1 36q3 21 15.5 29.5t27 6.5t24 -12.5t9.5 -25.5v-504q1 -24 -1 -36q-4 -21 -16.5 -29.5t-26.5 -6.5
t-23.5 12.5t-9.5 25.5z" />
    <glyph glyph-name="xunhuan" unicode="&#xe773;" 
d="M200 312q12 4 18 14.5t2 21.5q-5 16 -5 51q0 51 26 94.5t69.5 69.5t93.5 26h262v-51q0 -12 6.5 -16t18.5 0l118 72q23 15 0 31l-118 76q-11 12 -18 9.5t-7 -14.5v-51h-262q-49 0 -94 -18.5t-79.5 -53t-53 -79.5t-18.5 -95q0 -25 10 -66q4 -9 11 -15t15 -6h5zM200 312z
M845 486q-4 9 -11.5 15t-14.5 6h-5q-12 -4 -18 -14.5t-2 -21.5q5 -15 5 -51q0 -53 -26.5 -97.5t-71 -71t-97.5 -26.5h-256v51q0 12 -7 16t-18 0l-118 -77q-23 -15 0 -31l118 -76q11 -8 18 -4t7 19v51h261q50 0 95 18.5t79.5 53t53 79.5t18.5 95q0 25 -10 66zM845 486z" />
    <glyph glyph-name="hezuo" unicode="&#xe777;" horiz-adv-x="1239" 
d="M739 195l-102 103q-10 11 -10 25t10.5 24.5t24.5 10.5t25 -10l102 -102l55 55l-365 365q-55 50 -125 49.5t-124 -51.5q-52 -54 -52.5 -124.5t50.5 -125.5l365 -365l57 58l-102 102q-10 11 -10 25t10.5 24.5t24.5 10.5t25 -10l103 -102zM616 -27q-11 -10 -25 -9.5
t-24 10.5l-390 390q-48 48 -66 111.5t-0.5 130t64.5 113t113 64t129.5 0t112.5 -66.5l63 -63l67 67q48 49 112 66.5t130 0.5t113 -64t64.5 -113t-0.5 -130t-67 -112l-389 -389q-3 -4 -7 -6zM643 602l252 -251l67 67q52 55 52 126t-52 126q-55 52 -126 52t-126 -52z" />
    <glyph glyph-name="tingshu" unicode="&#xe778;" 
d="M221 370q13 0 22 -9t9 -22v-244q0 -13 -9 -22t-22 -9q-34 0 -62.5 17t-45.5 45.5t-17 62.5v56q0 34 17 62.5t45.5 45.5t62.5 17zM221 434q-51 0 -94.5 -25.5t-69 -69t-25.5 -94.5v-56q0 -51 25.5 -94.5t69 -69t94.5 -25.5q26 0 47.5 13t34.5 34.5t13 47.5v244
q0 26 -13 47.5t-34.5 34.5t-47.5 13zM803 370q34 0 62.5 -17t45.5 -45.5t17 -62.5v-56q0 -34 -17 -62.5t-45.5 -45.5t-62.5 -17q-13 0 -22 9t-9 22v244q0 13 9 22t22 9zM803 434q-26 0 -47.5 -13t-34.5 -34.5t-13 -47.5v-244q0 -26 13 -47.5t34.5 -34.5t47.5 -13
q51 0 94.5 25.5t69 69t25.5 94.5v56q0 51 -25.5 94.5t-69 69t-94.5 25.5zM850 387q-13 0 -22.5 9t-9.5 23v35q0 77 -39 142q-37 64 -101 102q-66 38 -143 38h-46q-77 0 -143 -38q-64 -38 -101 -102q-39 -65 -39 -142v-35q0 -14 -9.5 -23t-22.5 -9t-22.5 9t-9.5 23v35
q0 94 47 175q46 78 125 124q81 47 175 47h46q94 0 175 -47q79 -46 125 -124q47 -81 47 -175v-35q0 -14 -9.5 -23t-22.5 -9z" />
    <glyph glyph-name="paihangbang" unicode="&#xe782;" 
d="M160 288q-15 0 -23.5 -8.5t-8.5 -23.5v-128q0 -15 8.5 -23.5t23.5 -8.5h64q15 0 23.5 8.5t8.5 23.5v128q0 15 -8.5 23.5t-23.5 8.5h-64zM160 352h64q42 -1 68.5 -27.5t27.5 -68.5v-128q-1 -42 -27.5 -68.5t-68.5 -27.5h-64q-42 1 -68.5 27.5t-27.5 68.5v128
q1 42 27.5 68.5t68.5 27.5zM480 672q-15 0 -23.5 -8.5t-8.5 -23.5v-512q0 -15 8.5 -23.5t23.5 -8.5h64q15 0 23.5 8.5t8.5 23.5v512q0 15 -8.5 23.5t-23.5 8.5h-64zM480 736h64q42 -1 68.5 -27.5t27.5 -68.5v-512q-1 -42 -27.5 -68.5t-68.5 -27.5h-64q-42 1 -68.5 27.5
t-27.5 68.5v512q1 42 27.5 68.5t68.5 27.5zM800 416q-15 0 -23.5 -8.5t-8.5 -23.5v-256q0 -15 8.5 -23.5t23.5 -8.5h64q15 0 23.5 8.5t8.5 23.5v256q0 15 -8.5 23.5t-23.5 8.5h-64zM800 480h64q42 -1 68.5 -27.5t27.5 -68.5v-256q-1 -42 -27.5 -68.5t-68.5 -27.5h-64
q-42 1 -68.5 27.5t-27.5 68.5v256q1 42 27.5 68.5t68.5 27.5z" />
    <glyph glyph-name="emojilight" unicode="&#xe7a1;" 
d="M511 -64q-190 5 -316.5 131.5t-131.5 316.5q5 190 131.5 316.5t316.5 131.5q190 -5 316.5 -131.5t131.5 -316.5q-5 -190 -131.5 -316.5t-316.5 -131.5zM511 789q-172 -4 -286.5 -118.5t-118.5 -286.5q4 -172 118.5 -286.5t286.5 -118.5q172 4 286.5 118.5t118.5 286.5
q-4 172 -118.5 286.5t-286.5 118.5zM512 131q-68 0 -127.5 29t-101.5 82q-6 8 -5 16.5t8 14t15.5 4.5t14.5 -8q36 -46 87 -70.5t109.5 -24.5t109.5 25t87 71q6 7 14.5 8.5t15.5 -4t8 -14t-4 -16.5q-42 -54 -102 -83.5t-129 -29.5zM374 397q-13 0 -22 9t-10 23v64q1 13 10 22
t22.5 9t22.5 -9t9 -22v-64q0 -14 -9 -23t-23 -9zM652 397q-14 0 -23 9t-9 23v64q0 13 9 22t22.5 9t22.5 -9t10 -22v-64q-1 -14 -10 -23t-22 -9z" />
    <glyph glyph-name="trophy" unicode="&#xe7c4;" 
d="M868 736h-92v40q-1 7 -8 8h-512q-7 -1 -8 -8v-40h-92q-19 0 -31.5 -12.5t-12.5 -31.5v-148q1 -63 39.5 -107t98.5 -55q14 -89 75.5 -149t150.5 -71v-106h-196q-14 0 -23 -9t-9 -23v-32q1 -7 8 -8h512q7 1 8 8v32q0 14 -9 23t-23 9h-196v106q89 11 150.5 71t75.5 149
q60 11 98.5 55t39.5 107v148q0 19 -12.5 31.5t-31.5 12.5zM184 544v120h64v-208q-28 10 -45.5 33.5t-18.5 54.5zM704 416q0 -37 -14 -70.5t-40 -59.5t-59.5 -40t-70.5 -14h-16q-37 0 -70.5 14t-59.5 40t-40 59.5t-14 70.5v296h384v-296zM840 544q-1 -31 -18.5 -54.5
t-45.5 -33.5v208h64v-120z" />
    <glyph glyph-name="videofill" unicode="&#xe7c7;" 
d="M512 832q-190 -5 -316.5 -131.5t-131.5 -316.5q5 -190 131.5 -316.5t316.5 -131.5q190 5 316.5 131.5t131.5 316.5q-5 190 -131.5 316.5t-316.5 131.5zM691 352l-256 -157q-9 -4 -19 -3q-5 0 -8 0.5t-8 2.5q-15 10 -16 29v320q1 19 16 29q7 5 16 5t16 -5l256 -167
q15 -9 16 -28q0 -8 -3 -15.5t-10 -10.5z" />
    <glyph glyph-name="exit" unicode="&#xe7cb;" 
d="M918 406l-160 160q-10 10 -22 10t-22 -10t-10 -22t10 -22l105 -106h-307q-15 0 -23.5 -8.5t-8.5 -23.5t8.5 -23.5t23.5 -8.5h307l-105 -106q-10 -10 -10 -22t9 -22t23 -10t22 10l160 163l1 1q0 2 3 2q7 8 6.5 19.5t-10.5 18.5zM832 160q-15 0 -23.5 -8.5t-8.5 -23.5v-64
q0 -15 -8.5 -23.5t-23.5 -8.5h-544q-15 0 -23.5 8.5t-8.5 23.5v640q0 15 8.5 23.5t23.5 8.5h544q15 0 23.5 -8.5t8.5 -23.5v-64q0 -15 8.5 -23.5t23.5 -8.5t23.5 8.5t8.5 23.5v64q-1 42 -27.5 68.5t-68.5 27.5h-544q-42 -1 -68.5 -27.5t-27.5 -68.5v-640q1 -42 27.5 -68.5
t68.5 -27.5h544q42 1 68.5 27.5t27.5 68.5v64q0 15 -8.5 23.5t-23.5 8.5z" />
    <glyph glyph-name="verticalright" unicode="&#xe7ea;" 
d="M511 385l2 -2zM513 385l-2 -2zM512 832q-122 0 -226 -61q-101 -60 -161 -161q-61 -104 -61 -226t61 -226q60 -101 161 -161q104 -61 226 -61t226 61q101 60 161 161q61 104 61 226t-61 226q-60 101 -161 161q-104 61 -226 61zM629 173q-10 -9 -23 -9t-23 9l-189 189
q-8 9 -8 22t8 22l190 189q9 9 22 9t22.5 -9t9.5 -22.5t-9 -22.5l-166 -166l166 -166q9 -9 9 -22.5t-9 -22.5z" />
    <glyph glyph-name="verticalleft" unicode="&#xe7eb;" 
d="M511 385l2 -2zM513 385l-2 -2zM512 832q-122 0 -226 -61q-101 -60 -161 -161q-61 -104 -61 -226t61 -226q60 -101 161 -161q104 -61 226 -61t226 61q101 60 161 161q61 104 61 226t-61 226q-60 101 -161 161q-104 61 -226 61zM630 362l-2 -2l-188 -187q-9 -9 -22.5 -9
t-22.5 9t-9 22.5t9 22.5l166 166l-166 166q-9 9 -9 22.5t9.5 22.5t22.5 9t22 -9l190 -189q8 -9 8 -22t-8 -22z" />
    <glyph glyph-name="yonghu" unicode="&#xe85e;" 
d="M768 256q95 -2 158.5 -65.5t65.5 -158.5v-160h-960v160q2 95 65.5 158.5t158.5 65.5h512zM768 192h-512q-68 -2 -113 -47t-47 -113v-96h832v96q-1 65 -43 109.5t-107 50.5h-10zM512 896q122 -3 203.5 -84.5t84.5 -203.5q-3 -122 -84.5 -203.5t-203.5 -84.5
q-122 3 -203.5 84.5t-84.5 203.5q3 122 84.5 203.5t203.5 84.5zM512 832q-95 -2 -158.5 -65.5t-65.5 -158.5q2 -95 65.5 -158.5t158.5 -65.5q95 2 158.5 65.5t65.5 158.5q-2 95 -65.5 158.5t-158.5 65.5z" />
    <glyph glyph-name="changge" unicode="&#xe895;" 
d="M780 80q-27 -8 -54.5 -2.5t-49.5 24.5l-306 255q-5 5 -7 11q-8 -6 -22 -5v0q-99 2 -165.5 68.5t-68.5 165.5q2 100 68.5 166t165.5 69q100 -3 166 -69t69 -166q0 -12 -1 -23q4 -2 6 -6l256 -305q26 -33 26 -73.5t-25 -72.5l-3 -12q-17 -61 -55 -96.5t-96 -46.5
q-43 -9 -97 -6t-127 18l-52 10q-127 27 -184.5 28.5t-80.5 -24.5q-6 -7 -15 -7t-15 6t-6 15t6 15q21 22 54 31t78 6q29 -2 65 -8t107 -20l51 -11q131 -26 206 -12.5t106 77.5zM416 375l287 -241q22 -17 49.5 -16t47 21t21 47.5t-16.5 49.5l-240 287q-20 -57 -62 -97
t-100 -55zM341 405q82 2 136 56.5t56 135.5q-2 82 -56 136t-136 56q-81 -2 -135.5 -56t-56.5 -136q2 -81 56.5 -135.5t135.5 -56.5zM526 382l30 31l91 -91l-30 -30z" />
    <glyph glyph-name="bianji" unicode="&#xe8ac;" 
d="M863 780q13 13 30.5 8t22.5 -22.5t-8 -30.5l-453 -453q-9 -9 -22 -9t-22.5 9.5t-9.5 22.5t9 22zM853 448q1 14 10 23t22.5 9t22.5 -9t9 -23v-352q-1 -50 -34 -83t-83 -34h-576q-50 1 -83 34t-34 83v576q1 50 34 83t83 34h341q14 0 23 -9t9 -22.5t-9 -22.5t-23 -10h-341
q-22 0 -37.5 -15.5t-15.5 -37.5v-576q0 -22 15.5 -37.5t37.5 -15.5h576q22 0 37.5 15.5t15.5 37.5v352z" />
    <glyph glyph-name="caidan" unicode="&#xe8ad;" 
d="M512 811q55 -1 115.5 -40t113.5 -107q58 -75 90.5 -165.5t32.5 -189.5q-3 -161 -99.5 -255.5t-252.5 -96.5q-156 2 -252.5 96.5t-99.5 255.5q0 99 32.5 189.5t90.5 165.5q53 68 113.5 107t115.5 40zM512 747q-37 -1 -85.5 -33.5t-93.5 -89.5q-51 -66 -80 -146.5
t-29 -168.5q2 -133 80.5 -209.5t207.5 -78.5q129 2 207.5 78.5t80.5 209.5q0 88 -29 168.5t-80 146.5q-45 57 -93.5 89.5t-85.5 33.5zM437 224q15 0 27 -7t19.5 -19.5t7.5 -26.5t-7.5 -26.5t-19.5 -20t-27 -7.5q-22 1 -37 16t-15 37.5t15 37.5t37 16zM341 352
q12 0 21.5 -5.5t15.5 -15.5t6 -21.5t-6 -21.5t-15.5 -15.5t-21.5 -5.5q-18 0 -30 12t-12 30t12 30.5t30 12.5z" />
    <glyph glyph-name="bangzhu" unicode="&#xe8ae;" 
d="M878 165q-7 -12 -19.5 -15t-24 4t-15 19.5t3.5 24.5q26 42 39 89.5t13 96.5q-4 154 -106.5 256.5t-256.5 106.5q-154 -4 -256.5 -106.5t-106.5 -256.5q4 -154 106.5 -256.5t256.5 -106.5q49 0 96.5 13t89.5 39q12 6 24.5 3t19.5 -14.5t4 -24t-15 -19.5
q-50 -30 -105.5 -45.5t-113.5 -15.5q-181 5 -301.5 125.5t-125.5 301.5q5 181 125.5 301.5t301.5 125.5q181 -5 301.5 -125.5t125.5 -301.5q0 -59 -15.5 -114.5t-45.5 -104.5zM651 459q-1 -51 -31.5 -87.5t-78.5 -47.5v-36q0 -14 -9 -23t-22.5 -9t-22.5 9t-10 23v64
q1 14 10 23t22 9q33 1 55 22t22 52.5t-22 53t-55 21.5q-20 0 -37 -9t-28 -25q-5 -9 -8 -18q-5 -13 -16 -18.5t-24 -1.5t-19 15.5t-2 24.5q6 17 16 33q20 30 51 46.5t67 16.5q60 -1 100 -40t42 -98zM512 160q-14 0 -23 9t-9 23t9 23t23 9t23 -9t9 -23t-9 -23t-23 -9z" />
    <glyph glyph-name="buganxingqu" unicode="&#xe8af;" 
d="M414 331q-12 -14 -7 -31.5t23 -21.5t31 10l105 114q13 15 14 34t-11 35q-33 43 -62 89q-12 23 -1 52.5t39 58.5l14 13l12 10q38 31 97 31q95 -1 150.5 -69t56.5 -180q0 -85 -86 -188.5t-259 -225.5q-8 -6 -18 -6t-18 6q-173 122 -259 225.5t-86 188.5q1 112 56.5 180
t150.5 69q21 0 39 -6q13 -3 24 3t15.5 18.5t-1.5 24t-18 15.5q-29 9 -59 9q-125 -2 -197 -89t-74 -224q0 -105 93.5 -221t278.5 -245q25 -18 55 -18t55 18q185 129 278.5 245t93.5 221q-2 137 -74 224t-197 89q-81 -1 -136 -44q-8 -7 -15.5 -13.5t-16.5 -15.5
q-43 -42 -58.5 -92t11.5 -96t60 -89z" />
    <glyph glyph-name="bofangjilu" unicode="&#xe8b0;" 
d="M822 423l53 -29q-8 150 -109.5 249.5t-253.5 103.5q-154 -4 -256.5 -106.5t-106.5 -256.5q4 -154 106.5 -256.5t256.5 -106.5q93 1 171.5 43.5t130.5 117.5q10 15 28 14t26 -17.5t-1 -31.5q-61 -89 -153.5 -139t-201.5 -51q-181 5 -301.5 125.5t-125.5 301.5
q5 181 125.5 301.5t301.5 125.5q181 -5 301.5 -125.5t125.5 -301.5q0 -16 -3 -47q-2 -17 -16.5 -25t-30.5 0l-98 55q-12 7 -15 19.5t3.5 24t18.5 15t24 -2.5zM329 247l151 150v179q0 14 9 23t23 9t23 -9t9 -23v-192q0 -13 -9 -23l-160 -160q-14 -12 -31.5 -7.5t-22 22
t7.5 31.5z" />
    <glyph glyph-name="chuangzuo" unicode="&#xe8b1;" 
d="M896 32q14 0 23 -9t9 -23t-9 -23t-23 -9h-768q-14 0 -23 9t-9 23t9 23t23 9h768zM836 766l15 -15q34 -37 34 -83.5t-34 -82.5l-432 -432q-33 -33 -78 -43l-153 -35q-18 -3 -30 9.5t-7 31.5l43 147q12 39 40 68l436 435q36 34 83 34t83 -34zM636 642l-356 -357
q-18 -17 -25 -40l-27 -95l99 22q27 6 46 26l354 353zM715 720l-33 -33l90 -91l34 34q15 16 15 38t-15 37l-15 15q-17 16 -38.5 16t-37.5 -16z" />
    <glyph glyph-name="chenggong" unicode="&#xe8b2;" 
d="M878 165q-7 -12 -19.5 -15t-24 4t-15 19.5t3.5 24.5q26 42 39 89.5t13 96.5q-4 154 -106.5 256.5t-256.5 106.5q-154 -4 -256.5 -106.5t-106.5 -256.5q4 -154 106.5 -256.5t256.5 -106.5q49 0 96.5 13t89.5 39q12 6 24.5 3t19.5 -14.5t4 -24t-15 -19.5
q-50 -30 -105.5 -45.5t-113.5 -15.5q-181 5 -301.5 125.5t-125.5 301.5q5 181 125.5 301.5t301.5 125.5q181 -5 301.5 -125.5t125.5 -301.5q0 -59 -15.5 -114.5t-45.5 -104.5zM375 407l84 -84l190 190q10 10 23 10t22.5 -10t9.5 -22.5t-9 -22.5l-213 -213q-10 -10 -23 -10
t-23 10l-107 106q-12 13 -7.5 31t22 22.5t31.5 -7.5z" />
    <glyph glyph-name="dianzan" unicode="&#xe8b3;" 
d="M622 488q25 111 35 161q11 65 -18.5 112t-94.5 50q-57 0 -89.5 -29t-49.5 -86v-3q-21 -93 -63 -144q-22 -28 -53 -43t-66 -16l-22 -1q-40 -2 -66.5 -29t-27.5 -67v-318q1 -50 34 -83t82 -35h413q64 1 115 37t74 97l85 240q16 47 -4 89.5t-66 60.5q-19 7 -39 7h-179z
M544 747q30 -1 43.5 -24.5t6.5 -60.5q-11 -58 -43 -199q-3 -16 6 -27t25 -12h219q9 0 17 -3q21 -8 30 -27.5t2 -40.5l-85 -240q-16 -42 -50.5 -66.5t-79.5 -25.5h-412q-22 1 -37 16t-15 38v318q0 13 9 22.5t22 9.5l22 1q50 1 93.5 22.5t74.5 59.5q51 64 75 170
q10 38 27.5 53.5t49.5 15.5z" />
    <glyph glyph-name="dianying" unicode="&#xe8b4;" 
d="M845 11q-45 32 -144 -10q-90 -44 -189 -44q-181 5 -301.5 125.5t-125.5 301.5q5 181 125.5 301.5t301.5 125.5q181 -5 301.5 -125.5t125.5 -301.5q0 -100 -45 -190q-6 -12 -18 -15.5t-24 2.5t-16.5 17.5t1.5 24.5q38 76 38 161q-4 154 -106.5 256.5t-256.5 106.5
q-154 -4 -256.5 -106.5t-106.5 -256.5q4 -154 106.5 -256.5t256.5 -106.5q86 1 161 38l2 1q127 55 206 4q11 -8 13.5 -20.5t-5.5 -24t-20.5 -14t-23.5 5.5zM512 480q-27 1 -45 19t-18 45t18 45t45 18t45 -18t18 -45t-18 -45t-45 -19zM672 320q-27 1 -45 19t-18 45t18 45
t45 18t45 -18t18 -45t-18 -45t-45 -19zM512 160q-27 1 -45 19t-18 45t18 45t45 18t45 -18t18 -45t-18 -45t-45 -19zM352 320q-27 1 -45 19t-18 45t18 45t45 18t45 -18t18 -45t-18 -45t-45 -19z" />
    <glyph glyph-name="gengduo" unicode="&#xe8b5;" 
d="M299 309q-21 1 -38 10.5t-27 27t-10 37.5t10 37.5t27 27t38 10.5q31 -1 52.5 -22t21.5 -53t-21.5 -53t-52.5 -22zM512 309q-20 1 -37 10.5t-27.5 27t-10.5 37.5t10.5 37.5t27.5 27t37 10.5q32 -1 53 -22t21 -53t-21 -53t-53 -22zM725 309q-20 1 -37 10.5t-27 27t-10 37.5
t10 37.5t27 27t37 10.5q32 -1 53 -22t21 -53t-21 -53t-53 -22z" />
    <glyph glyph-name="faxian" unicode="&#xe8b6;" 
d="M512 811q181 -5 301.5 -125.5t125.5 -301.5q-5 -181 -125.5 -301.5t-301.5 -125.5q-181 5 -301.5 125.5t-125.5 301.5q5 181 125.5 301.5t301.5 125.5zM512 747q-154 -4 -256.5 -106.5t-106.5 -256.5q4 -154 106.5 -256.5t256.5 -106.5q154 4 256.5 106.5t106.5 256.5
q-4 154 -106.5 256.5t-256.5 106.5zM661 588q12 4 24 1.5t21 -11.5t11.5 -21t-1.5 -24l-78 -217q-8 -20 -23 -35t-35 -23l-217 -78q-12 -4 -24 -1.5t-21 11.5t-11.5 21t1.5 24l78 217q8 20 23 35t35 23zM640 512l-174 -63q-14 -5 -19 -19l-63 -174l174 63q14 5 19 19z" />
    <glyph glyph-name="fenxiang" unicode="&#xe8b7;" 
d="M853 363q1 13 10 22t22.5 9t22.5 -9t9 -22v-267q-1 -50 -34 -83t-83 -34h-576q-50 1 -83 34t-34 83v544q1 50 34 83t83 34h277q14 0 23 -9t9 -22.5t-9 -22.5t-23 -10h-277q-22 0 -37.5 -15.5t-15.5 -37.5v-544q0 -22 15.5 -37.5t37.5 -15.5h576q22 0 37.5 15.5t15.5 37.5
v267zM811 640l-90 95q-9 11 -8.5 23.5t10.5 22t23 9t22 -10.5l141 -149q13 -17 5.5 -35t-29.5 -19h-160q-63 -2 -105 -47t-44 -113v-192q0 -14 -9 -23t-23 -9t-23 9t-9 23v192q2 95 62 158.5t151 65.5h86z" />
    <glyph glyph-name="huiyuan" unicode="&#xe8b8;" 
d="M311 525l160 202q16 19 41 19t41 -19l160 -202l153 65q14 6 28 4t25.5 -11.5t16 -23t2.5 -27.5l-90 -431q-9 -40 -39 -64.5t-71 -25.5h-452q-41 1 -71 25.5t-39 64.5l-90 431q-2 14 2.5 27.5t16 23t25.5 11.5t28 -4zM512 675l-156 -197q-12 -14 -28.5 -18t-33.5 2
l-140 61l85 -409q3 -17 16 -27.5t31 -11.5h452q18 1 31 11.5t16 27.5l85 409l-140 -61q-17 -6 -33.5 -2t-28.5 18z" />
    <glyph glyph-name="huati" unicode="&#xe8b9;" 
d="M476 352h63l9 64h-63zM467 288l-9 -68q-2 -14 -12 -21.5t-23.5 -6t-21.5 12t-6 23.5l8 60h-51q-14 0 -23 9t-9 23t9 23t23 9h59l9 64h-68q-14 0 -23 9t-9 23t9 23t23 9h77l9 68q2 14 12 21.5t23.5 6t21.5 -12t6 -23.5l-8 -60h64l9 68q2 14 12 21.5t23.5 6t21.5 -12
t6 -23.5l-8 -60h51q14 0 23 -9t9 -23t-9 -23t-23 -9h-59l-9 -64h68q14 0 23 -9t9 -23t-9 -23t-23 -9h-77l-9 -68q-2 -14 -12 -21.5t-23.5 -6t-21.5 12t-6 23.5l8 60h-64zM158 145q-17 28 -22 38q-25 46 -38 97t-13 104q5 181 125.5 301.5t301.5 125.5q181 -5 301.5 -125.5
t125.5 -301.5q-5 -181 -125.5 -301.5t-301.5 -125.5q-58 0 -113.5 15.5t-105.5 45.5l-20 12l-105 -29q-18 -4 -30.5 8.5t-8.5 30.5zM223 141l-17 -63l63 17q13 3 24 -3l33 -19q42 -26 89.5 -39t96.5 -13q154 4 256.5 106.5t106.5 256.5q-4 154 -106.5 256.5t-256.5 106.5
q-154 -4 -256.5 -106.5t-106.5 -256.5q1 -92 43 -171q6 -11 28 -47q6 -12 3 -25z" />
    <glyph glyph-name="guanzhu" unicode="&#xe8ba;" 
d="M791 705q9 9 22.5 9t22.5 -9q65 -65 99.5 -148.5t34.5 -175.5t-34.5 -175.5t-99.5 -148.5q-13 -13 -30.5 -8.5t-22 22.5t7.5 31q56 56 85.5 128t29.5 151t-29.5 151t-85.5 128q-9 9 -9 22.5t9 22.5zM188 705q9 10 22 10t22.5 -10t9.5 -22.5t-9 -22.5q-56 -56 -85.5 -128
t-29.5 -151t29.5 -151t85.5 -128q9 -10 9 -22.5t-9.5 -22.5t-22.5 -10t-22 10q-65 65 -99.5 148.5t-34.5 175.5t34.5 175.5t99.5 148.5zM331 610q9 -10 9 -22.5t-9 -22.5q-36 -37 -55.5 -83.5t-19.5 -97.5t19.5 -98t55.5 -83q10 -10 10 -23t-10 -22.5t-22.5 -9.5t-22.5 10
q-45 45 -69.5 103.5t-24.5 122.5t24 122.5t70 103.5q9 9 22 9t23 -9zM738 610q46 -45 70 -103.5t24 -122.5t-24 -122.5t-70 -103.5q-10 -10 -22.5 -10t-22 10t-9.5 22.5t9 22.5q36 36 55.5 83t19.5 98t-19.5 98t-55.5 83q-13 13 -8.5 31t22.5 22.5t31 -8.5zM567 512
q53 -1 84 -37.5t32 -93.5q0 -43 -35.5 -88t-104.5 -93q-15 -10 -31 -10t-31 10q-69 48 -104.5 93t-35.5 88q1 57 32 93.5t84 37.5q16 0 29 -4.5t26 -13.5q13 9 26 13.5t29 4.5zM567 448q-6 0 -12 -3t-16 -12l-6 -5q-9 -8 -21 -8t-21 8l-6 5q-10 9 -16 12t-12 3
q-24 0 -37.5 -18t-14.5 -49q-1 -46 107 -124q108 78 107 124q-1 31 -14.5 49t-37.5 18z" />
    <glyph glyph-name="lihe" unicode="&#xe8bb;" 
d="M559 739q14 24 37 37.5t50.5 13.5t51 -13.5t37 -37.5t13.5 -51t-14 -51l-19 -33h149q31 0 52 -20.5t23 -51.5v-88q-1 -31 -22 -52.5t-53 -21.5h-11v-288q-1 -50 -34 -83t-83 -35h-427q-50 2 -83 35t-34 83v288h-11q-31 0 -51.5 20.5t-22.5 51.5v88q0 31 21.5 52t52.5 22
h142l-19 33q-13 24 -13.5 51t13.5 51t37 37.5t51 13.5t51 -13.5t37 -37.5l39 -69zM789 370h-533v-288q1 -23 16 -38t37 -16h427q22 1 37.5 16.5t15.5 37.5v288zM864 540h-683q-9 -1 -10 -10v-86q1 -9 10 -10h683q10 1 11 10v86q-1 9 -11 10zM373 720q-13 -8 -17 -22.5
t4 -28.5l37 -65h84l1 2l-58 101q-8 13 -22.5 17t-28.5 -4zM665 720q-14 8 -28 4t-23 -17l-58 -101l1 -2h84l38 65q7 14 4 28t-16 22z" />
    <glyph glyph-name="mingxinghuodong" unicode="&#xe8bc;" 
d="M512 811q181 -5 301.5 -125.5t125.5 -301.5q-5 -181 -125.5 -301.5t-301.5 -125.5q-181 5 -301.5 125.5t-125.5 301.5q5 181 125.5 301.5t301.5 125.5zM512 747q-154 -4 -256.5 -106.5t-106.5 -256.5q4 -154 106.5 -256.5t256.5 -106.5q154 4 256.5 106.5t106.5 256.5
q-4 154 -106.5 256.5t-256.5 106.5zM533 614q21 -9 29 -29l38 -92l97 -8q23 -2 37 -19t12 -39.5t-18 -37.5l-74 -65l22 -96q5 -23 -6.5 -41.5t-33.5 -24t-41 5.5l-83 52l-83 -52q-19 -11 -41 -6t-33.5 24.5t-6.5 41.5l22 96l-74 65q-17 16 -18.5 37.5t13 39t36.5 19.5l97 8
l38 92q9 21 29 29.5t42 -0.5zM512 539l-31 -75q-6 -15 -18 -24t-28 -10l-81 -7l62 -54q12 -10 16.5 -24.5t1.5 -29.5l-19 -80l68 42q14 8 29 8t29 -8l68 -42l-19 80q-3 15 1.5 29.5t16.5 24.5l62 54l-81 7q-16 1 -28 10t-18 24z" />
    <glyph glyph-name="saoyisao" unicode="&#xe8bd;" 
d="M693 725q-13 1 -22 10t-9 22.5t9 22.5t22 9h150q31 0 52.5 -21.5t21.5 -52.5v-150q0 -13 -9 -22t-22.5 -9t-22.5 9t-10 22v150q-1 9 -10 10h-150zM853 203q1 13 10 22t22.5 9t22.5 -9t9 -22v-150q0 -31 -21.5 -52.5t-52.5 -21.5h-150q-13 0 -22 9t-9 22.5t9 22.5t22 10
h150q9 1 10 10v150zM331 43q13 -1 22 -10t9 -22.5t-9 -22.5t-22 -9h-150q-31 0 -52.5 21.5t-21.5 52.5v150q0 13 9 22t22.5 9t22.5 -9t10 -22v-150q1 -9 10 -10h150zM171 565q-1 -13 -10 -22t-22.5 -9t-22.5 9t-9 22v150q0 31 21.5 52.5t52.5 21.5h150q13 0 22 -9t9 -22.5
t-9 -22.5t-22 -10h-150q-9 -1 -10 -10v-150zM800 416q14 0 23 -9t9 -23t-9 -23t-23 -9h-576q-14 0 -23 9t-9 23t9 23t23 9h576z" />
    <glyph glyph-name="rili" unicode="&#xe8be;" 
d="M725 725h75q50 -1 83 -34t34 -83v-512q-1 -50 -34 -83t-83 -34h-576q-50 1 -83 34t-34 83v512q1 50 34 83t83 34h75v32q0 14 9 23t22.5 9t22.5 -9t10 -23v-32h298v32q1 14 10 23t22.5 9t22.5 -9t9 -23v-32zM725 661v-32q0 -13 -9 -22t-22.5 -9t-22.5 9t-10 22v32h-298
v-32q-1 -13 -10 -22t-22.5 -9t-22.5 9t-9 22v32h-75q-22 0 -37.5 -15.5t-15.5 -37.5v-512q0 -22 15.5 -37.5t37.5 -15.5h576q22 0 37.5 15.5t15.5 37.5v512q0 22 -15.5 37.5t-37.5 15.5h-75zM715 437q13 0 22 -9t9 -22.5t-9 -22.5t-22 -10h-406q-13 1 -22 10t-9 22.5t9 22.5
t22 9h406zM587 277q13 0 22 -9t9 -22.5t-9 -22.5t-22 -10h-278q-13 1 -22 10t-9 22.5t9 22.5t22 9h278z" />
    <glyph glyph-name="pinglun" unicode="&#xe8bf;" 
d="M158 145q-17 28 -22 38q-25 46 -38 97t-13 104q5 181 125.5 301.5t301.5 125.5q181 -5 301.5 -125.5t125.5 -301.5q-5 -181 -125.5 -301.5t-301.5 -125.5q-58 0 -113.5 15.5t-105.5 45.5l-20 12l-105 -29q-18 -4 -30.5 8.5t-8.5 30.5zM223 141l-17 -63l63 17q13 3 24 -3
l33 -19q42 -26 89.5 -39t96.5 -13q154 4 256.5 106.5t106.5 256.5q-4 154 -106.5 256.5t-256.5 106.5q-154 -4 -256.5 -106.5t-106.5 -256.5q1 -92 43 -171q6 -11 28 -47q6 -12 3 -25zM369 212q-14 12 -11 30t20 24t32 -5q21 -18 47.5 -27.5t54.5 -9.5q58 1 102 37
q11 8 23.5 7t21.5 -11.5t7.5 -23t-11.5 -21.5q-30 -26 -67 -39t-76 -13t-76 13t-67 39z" />
    <glyph glyph-name="shaixuan" unicode="&#xe8c0;" 
d="M646 384l225 308q18 26 13.5 55.5t-29.5 48.5q-20 14 -44 15h-598q-31 -1 -52.5 -22t-21.5 -53q0 -24 14 -44l225 -308v-395q0 -13 9 -22t23 -9t23 9t9 22v406q0 10 -6 19l-231 316q-4 5 -1 10.5t9 6.5h598q6 -1 9 -6.5t-1 -10.5l-231 -316q-6 -9 -6 -19v-315
q0 -14 9 -23t22.5 -9t23 9t9.5 23v304z" />
    <glyph glyph-name="shanchu" unicode="&#xe8c1;" 
d="M203 640h-43q-14 0 -23 9t-9 23t9 23t23 9h704q14 0 23 -9t9 -23t-9 -23t-23 -9h-597v-565q0 -22 15.5 -37.5t37.5 -16.5h384q22 1 37.5 16.5t15.5 37.5v469q1 14 10 23t22.5 9t22.5 -9t9 -23v-469q-1 -50 -34 -83t-83 -35h-384q-50 2 -83 35t-34 83v565zM427 747
q-14 0 -23 9t-9 22.5t9 22.5t23 10h170q14 -1 23 -10t9 -22.5t-9 -22.5t-23 -9h-170zM395 459q0 13 9 22t22.5 9t22.5 -9t10 -22v-256q-1 -14 -10 -23t-22.5 -9t-22.5 9t-9 23v256zM565 459q1 13 10 22t22.5 9t22.5 -9t9 -22v-256q0 -14 -9 -23t-22.5 -9t-22.5 9t-10 23v256
z" />
    <glyph glyph-name="shezhi" unicode="&#xe8c2;" 
d="M944 344l-182 -331q-10 -18 -27 -28t-37 -10h-363q-20 0 -37 10t-27 28l-182 331q-10 17 -10 36t10 36l182 331q10 18 27 28t37 10h363q20 0 37 -10t27 -28l182 -331q10 -17 10 -36t-10 -36zM888 375q3 5 0 10l-182 331q-3 5 -9 5h-361q-6 0 -9 -5l-183 -331q-2 -5 0 -10
l183 -331q3 -5 9 -5h361q6 0 9 5zM514 213q-73 2 -121 50t-50 121q2 73 50 121t121 50q72 -2 120.5 -50t49.5 -121q-1 -73 -49.5 -121t-120.5 -50zM514 277q45 1 75 31.5t31 75.5q-1 45 -31 75.5t-75 31.5q-46 -1 -76 -31.5t-31 -75.5q1 -45 31 -75.5t76 -31.5z" />
    <glyph glyph-name="shangchuan" unicode="&#xe8c3;" 
d="M565 116l52 55q9 10 22 10t23 -9.5t10 -22t-9 -23.5l-97 -104q-11 -11 -26.5 -11.5t-26.5 10.5l-108 104q-10 10 -10.5 23t9 23t22.5 10t23 -9l52 -50v262q1 14 10 23t22.5 9t22.5 -9t9 -23v-268zM512 757q94 -1 164 -58t95 -149q72 -3 119 -52.5t49 -124.5
q-2 -75 -50 -125t-120 -52q-14 0 -23 9.5t-9 23t9 23t23 9.5q44 1 74.5 32.5t31.5 79.5q-1 48 -31.5 80t-74.5 33q-9 0 -18 -2q-13 -2 -23.5 6t-13.5 21q-13 80 -69 130t-133 52q-56 -1 -102.5 -29.5t-74.5 -78.5q-11 -17 -30 -17h-10q-62 -1 -103 -44.5t-43 -108.5
q2 -66 43 -109t103 -45q14 0 23 -9.5t9 -23t-9 -23t-23 -9.5q-89 3 -148 64.5t-62 154.5q2 91 59.5 152t144.5 66q38 58 96 91t127 33z" />
    <glyph glyph-name="shengyinguanbi" unicode="&#xe8c4;" 
d="M257 574l216 133q20 11 40.5 6.5t33.5 -23.5q8 -13 8 -28v-556q-1 -22 -16 -37t-38 -16q-15 0 -28 8l-216 133h-97q-32 1 -53 22t-22 52v232q1 31 22 52t53 22h97zM284 515q-8 -5 -17 -5h-107q-10 -1 -11 -10v-232q1 -10 11 -10h107q9 0 17 -5l207 -128v518zM833 378
l86 -87q9 -9 9 -21.5t-9 -21.5t-21.5 -9t-21.5 9l-87 86l-86 -86q-10 -9 -22 -9t-21 9t-9 21.5t9 21.5l86 87l-86 86q-12 13 -7.5 29.5t21 21t29.5 -7.5l86 -86l87 86q12 12 29 7.5t21.5 -21t-7.5 -29.5z" />
    <glyph glyph-name="shengyin" unicode="&#xe8c5;" 
d="M257 574l216 133q20 11 40.5 6.5t33.5 -23.5q8 -13 8 -28v-556q-1 -22 -16 -37t-38 -16q-15 0 -28 8l-216 133h-97q-32 1 -53 22t-22 52v232q1 31 22 52t53 22h97zM284 515q-8 -5 -17 -5h-107q-10 -1 -11 -10v-232q1 -10 11 -10h107q9 0 17 -5l207 -128v518zM801 66
q-10 -9 -23 -8.5t-22 10t-9 22.5t9 22q119 118 119 272t-119 272q-9 9 -9 22t9 22.5t22 10t23 -8.5q138 -139 138 -318t-138 -318zM694 193q-10 -9 -23 -9t-22 9.5t-8.5 22.5t9.5 22q65 64 65 146t-65 146q-9 9 -9.5 22t8.5 22.5t22 9.5t23 -9q85 -83 85 -191t-85 -191z" />
    <glyph glyph-name="shoucang" unicode="&#xe8c6;" 
d="M335 -21q-28 -16 -57.5 -9t-46 34.5t-10.5 57.5l47 199q1 7 -4 12l-152 133q-24 22 -26.5 52.5t18 55t51.5 27.5l200 16q7 1 10 7l77 189q13 29 41 41t57.5 -0.5t41.5 -40.5l77 -189q3 -6 10 -7l200 -16q32 -4 51.5 -27.5t17.5 -55t-26 -52.5l-152 -133q-5 -5 -4 -12
l47 -199q6 -31 -9.5 -57t-46.5 -34t-58 8l-171 107q-6 3 -12 0zM552 140l171 -106q4 -3 8.5 -1.5t7 5.5t1.5 10l-46 198q-5 21 1.5 41t22.5 35l152 132q4 4 4.5 9.5t-2.5 9t-8 4.5l-200 16q-22 2 -39 14.5t-25 32.5l-77 188q-2 5 -7 7q-10 3 -15 -7l-77 -188
q-8 -20 -25 -32.5t-39 -14.5l-200 -16q-4 -1 -8 -4q-6 -10 2 -19l152 -132q16 -15 22.5 -35t1.5 -41l-46 -198q-2 -5 1 -10q7 -9 16 -4l171 106q19 11 40 11t40 -11z" />
    <glyph glyph-name="shouye" unicode="&#xe8c7;" 
d="M156 553l312 225q21 14 44 14t44 -14l312 -225q24 -16 36.5 -41t12.5 -54v-362q-1 -50 -34 -83t-83 -34h-576q-50 1 -83 34t-34 83v362q0 29 12.5 54t36.5 41zM193 501q-22 -16 -22 -43v-362q0 -22 15.5 -37.5t37.5 -15.5h576q22 0 37.5 15.5t15.5 37.5v362q0 27 -22 43
l-313 225q-6 4 -12 0z" />
    <glyph glyph-name="shuaxin" unicode="&#xe8c8;" 
d="M822 423q-12 6 -24 2.5t-18.5 -15t-3.5 -24t15 -19.5l98 -55q16 -8 30.5 0t16.5 25q3 31 3 47q-5 181 -125.5 301.5t-301.5 125.5q-181 -5 -301.5 -125.5t-125.5 -301.5q5 -181 125.5 -301.5t301.5 -125.5q109 1 201.5 51t153.5 139q9 15 1 31.5t-26 17.5t-28 -14
q-52 -75 -130.5 -117.5t-171.5 -43.5q-154 4 -256.5 106.5t-106.5 256.5q4 154 106.5 256.5t256.5 106.5q152 -4 253.5 -103.5t109.5 -249.5z" />
    <glyph glyph-name="sousuo1" unicode="&#xe8c9;" 
d="M798 144q46 55 71.5 122t25.5 140q-5 172 -119 286t-286 119q-172 -5 -286 -119t-119 -286q5 -172 119 -286t286 -119q60 0 118 18q13 4 19 15.5t2 24t-15 18.5t-24 3q-49 -15 -100 -15q-145 4 -241 100t-100 241q4 145 100 241t241 100q145 -4 241 -100t100 -241
q0 -68 -25.5 -128.5t-71.5 -108.5q-11 -12 -11 -26.5t11 -25.5l150 -150q10 -10 22.5 -9.5t22 10t10 22t-9.5 22.5z" />
    <glyph glyph-name="tanhao" unicode="&#xe8ca;" 
d="M512 811q181 -5 301.5 -125.5t125.5 -301.5q0 -59 -15.5 -114.5t-45.5 -104.5q-7 -12 -19.5 -15t-24 4t-15 19.5t3.5 24.5q26 42 39 89.5t13 96.5q-4 154 -106.5 256.5t-256.5 106.5q-154 -4 -256.5 -106.5t-106.5 -256.5q4 -154 106.5 -256.5t256.5 -106.5q49 0 96.5 13
t89.5 39q12 6 24.5 3t19.5 -14.5t4 -24t-15 -19.5q-50 -30 -105.5 -45.5t-113.5 -15.5q-181 5 -301.5 125.5t-125.5 301.5q5 181 125.5 301.5t301.5 125.5zM512 245q12 0 21.5 -5.5t15.5 -15.5t6 -21.5t-6 -21.5t-15.5 -15.5t-21.5 -5.5q-18 0 -30 12.5t-12 30.5t12 30
t30 12zM512 608q18 0 30 -12.5t13 -30.5v-234q0 -12 -6 -21.5t-16 -15.5t-21 -6t-21 6t-16 15.5t-6 21.5v234q1 18 13 30.5t30 12.5z" />
    <glyph glyph-name="taolunqu" unicode="&#xe8cb;" 
d="M519 49q-32 -6 -66 -6q-50 0 -98 13t-91 39l-15 9l-87 -24q-19 -4 -31 8.5t-8 30.5l23 87l-17 31q-43 81 -44 174q4 156 108 260t260 108q142 -3 242.5 -91t122.5 -225q57 -36 88.5 -93t32.5 -125q-1 -64 -31 -121l-9 -16l14 -54q4 -19 -8 -31t-31 -8l-54 14l-6 -3
q-61 -36 -131 -37q-46 0 -87.5 15.5t-76.5 44.5zM599 73q40 -20 84 -20q53 0 98 28l19 10q11 7 24 4l13 -4l-4 13q-3 13 4 24l15 27q23 42 23 90q0 38 -14.5 72.5t-40.5 62.5q-10 -105 -69 -186t-152 -121zM212 202l-13 -45l46 12q13 3 25 -3l27 -16q36 -22 75.5 -32.5
t80.5 -10.5q130 3 215.5 88.5t88.5 215.5q-3 129 -88.5 214.5t-215.5 89.5q-129 -4 -214.5 -89.5t-89.5 -214.5q1 -77 36 -144q5 -9 23 -40q7 -11 4 -25zM587 523q13 -1 22 -10t9 -22.5t-9 -22.5t-22 -9h-267q-14 0 -23 9t-9 22.5t9 22.5t23 10h267zM459 363q13 -1 22 -10
t9 -22.5t-9 -22.5t-22 -9h-139q-14 0 -23 9t-9 22.5t9 22.5t23 10h139z" />
    <glyph glyph-name="tishi" unicode="&#xe8cc;" 
d="M544 107h105q10 1 11 10l-3 95q0 18 14 28q60 40 94 103t35 137q-3 122 -84.5 203.5t-203.5 84.5q-122 -3 -203.5 -84.5t-84.5 -203.5q1 -74 35 -137t94 -103q14 -10 14 -26l4 -97q1 -9 10 -10h99v216l-77 82q-9 10 -8.5 22.5t10.5 22t22.5 9t22.5 -9.5l63 -68l73 69
q10 9 23 8.5t22 -10t9 -22.5t-10 -23l-86 -81v-215zM864 480q0 -85 -37.5 -158.5t-105.5 -124.5l3 -77q0 -32 -21.5 -54.5t-53.5 -22.5h-268q-31 0 -51.5 20.5t-22.5 51.5l-3 81q-68 51 -106 125t-38 159q4 150 103 249t249 103q150 -4 249 -103t103 -249zM416 -64
q-14 0 -23 9t-9 23t9 23t23 9h192q14 0 23 -9t9 -23t-9 -23t-23 -9h-192z" />
    <glyph glyph-name="tupian" unicode="&#xe8cd;" 
d="M939 342v-214q-2 -50 -35 -83t-83 -34h-618q-50 1 -83 34t-35 83v512q2 50 35 83t83 34h618q50 -1 83 -34t35 -83v-298zM875 417v223q-1 22 -16.5 37.5t-37.5 15.5h-618q-22 0 -37.5 -15.5t-16.5 -37.5v-344q22 3 43 3q51 0 97.5 -17t85.5 -49q41 102 129 163t200 63
q50 -1 94 -12t77 -30zM875 334q-4 7 -15.5 16t-28.5 17q-52 27 -127 28q-93 -2 -165.5 -52.5t-104.5 -136.5l-14 -39q-7 -16 -22.5 -20t-29.5 7q-25 22 -36 31q-30 25 -66 37.5t-74 12.5q-22 0 -43 -4v-103q1 -22 16.5 -37.5t37.5 -15.5h618q22 0 37.5 15.5t16.5 37.5v206z
M320 416q-41 1 -68 28t-27 68t27 68t68 27t68 -27t27 -68t-27 -68t-68 -28zM320 480q14 0 23 9t9 23t-9 23t-23 9t-23 -9t-9 -23t9 -23t23 -9z" />
    <glyph glyph-name="wenjuan" unicode="&#xe8ce;" 
d="M896 162l1 -1q9 -9 9 -22t-9 -21l-162 -153q-10 -9 -23 -9t-23 9l-93 87q-9 9 -9 22t9 22l1 1q10 9 22 9t22 -9l71 -67l140 132q10 9 22 9t22 -9zM768 811q50 -2 83 -35t34 -83v-394q0 -14 -9 -23t-22.5 -9t-22.5 9t-10 23v394q0 22 -15.5 37.5t-37.5 16.5h-512
q-22 -1 -37.5 -16.5t-15.5 -37.5v-618q0 -22 15.5 -37.5t37.5 -16.5h235q13 0 22 -9t9 -22.5t-9 -22.5t-22 -10h-235q-50 2 -83 35t-34 83v618q1 50 34 83t83 35h512zM555 352q13 0 22 -9t9 -23t-9 -23t-22 -9h-214q-13 0 -22 9t-9 23t9 23t22 9h214zM683 523q13 -1 22 -10
t9 -22.5t-9 -22.5t-22 -9h-342q-13 0 -22 9t-9 22.5t9 22.5t22 10h342z" />
    <glyph glyph-name="wode" unicode="&#xe8cf;" 
d="M885 800q19 -1 27.5 -15t1.5 -31q-29 -58 -57 -117q40 -55 61 -119t21 -132q-5 -181 -125.5 -301.5t-301.5 -124.5q-181 4 -301.5 124.5t-125.5 301.5q5 182 125.5 302.5t301.5 124.5q104 0 197 -48q80 35 176 35zM721 701q-15 -7 -30 1q-41 23 -86.5 35t-92.5 12
q-154 -4 -256.5 -106t-106.5 -257q4 -154 106.5 -256t256.5 -106q154 4 256.5 106t106.5 256q0 63 -20.5 121t-59.5 106q-12 16 -4 34q20 43 41 86q-60 -8 -111 -32zM331 533q18 0 30 -12t12 -30v-64q0 -12 -5.5 -21.5t-15.5 -15.5t-21.5 -6t-21.5 6t-15.5 15.5t-5.5 21.5
v64q0 18 12.5 30t30.5 12zM501 533q18 0 30.5 -12t12.5 -30v-64q0 -12 -5.5 -21.5t-15.5 -15.5t-21.5 -6t-21.5 6t-15.5 15.5t-5.5 21.5v64q0 18 12 30t30 12z" />
    <glyph glyph-name="xiangkan" unicode="&#xe8d0;" 
d="M512 711q41 35 76.5 51.5t79.5 16.5q95 -1 158 -54.5t90 -148.5q3 -13 -3 -24t-19 -15t-24 2.5t-15 18.5q-22 76 -69 116t-118 41q-30 0 -56.5 -13t-60.5 -43l-18 -15q-10 -8 -21 -8t-21 8l-18 15q-34 30 -60.5 43t-56.5 13q-95 -2 -150.5 -69t-56.5 -178
q0 -83 85.5 -186t258.5 -223q9 -6 19 -6t18 6q71 51 94 69q11 8 24 6.5t21 -12.5t6.5 -23.5t-11.5 -21.5q-25 -19 -97 -70q-25 -18 -55 -18t-56 18q-184 128 -277.5 242.5t-93.5 218.5q2 136 74 222t197 89q44 0 79.5 -16.5t76.5 -51.5zM821 341h86q13 0 22 -9t9 -22.5
t-9 -22.5t-22 -10h-86v-85q0 -14 -9 -23t-22.5 -9t-22.5 9t-10 23v85h-85q-14 1 -23 10t-9 22.5t9 22.5t23 9h85v86q1 13 10 22t22.5 9t22.5 -9t9 -22v-86z" />
    <glyph glyph-name="xiaoxizhongxin" unicode="&#xe8d1;" 
d="M192 265v226q3 136 93.5 226t226.5 94q136 -4 226.5 -94t93.5 -226v-226l61 -121q7 -17 -2 -31.5t-27 -15.5h-704q-18 1 -27 15.5t-2 31.5zM812 161l-41 82q-3 7 -3 14v234q-3 109 -75 181t-181 75q-109 -3 -181 -75t-75 -181v-234q0 -7 -3 -14l-41 -82h600zM369 9
q-10 8 -11.5 21.5t7.5 23.5t21.5 11t23.5 -7q22 -18 48 -27.5t54 -9.5t54 9.5t48 27.5q11 8 23.5 7t21.5 -11t7.5 -23.5t-11.5 -21.5q-30 -25 -67 -38.5t-76.5 -13.5t-76 13.5t-66.5 38.5z" />
    <glyph glyph-name="yanjing" unicode="&#xe8d2;" 
d="M512 64q-235 1 -418 292q-9 13 -9 28t9 28q183 291 418 292q235 -1 418 -292q9 -13 9 -28t-9 -28q-183 -291 -418 -292zM512 640q-194 1 -360 -256q166 -257 360 -256q194 -1 360 256q-166 257 -360 256zM512 235q-64 1 -106.5 43.5t-44.5 105.5q2 63 44.5 105.5
t106.5 43.5q64 -1 106.5 -43.5t44.5 -105.5q-2 -63 -44.5 -105.5t-106.5 -43.5zM512 299q37 1 61 25t24 60t-24 60t-61 24t-61 -24t-24 -60t24 -60t61 -25z" />
    <glyph glyph-name="yingpingmoban" unicode="&#xe8d3;" 
d="M779 779q50 -2 83 -35t34 -83v-640q-1 -19 -17 -27.5t-33 1.5l-77 51l-61 -45q-11 -9 -25 -9t-26 9l-60 44l-59 -44q-12 -9 -26 -9t-26 9l-59 44l-60 -44q-12 -9 -26 -9t-25 9l-61 45l-77 -51q-17 -10 -33 -1.5t-17 27.5v640q1 50 34 83t83 35h534zM779 715h-534
q-22 -1 -37.5 -16.5t-15.5 -37.5v-580l40 27q12 7 25 7t24 -9l60 -45l60 45q12 9 26 9t25 -9l60 -45l60 45q11 9 25 9t26 -9l60 -45l60 45q11 9 24 9t25 -7l40 -27v580q0 22 -15.5 37.5t-37.5 16.5zM565 373q14 0 23 -9t9 -22.5t-9 -22.5t-23 -10h-213q-14 1 -23 10t-9 22.5
t9 22.5t23 9h213zM672 544q14 0 23 -9t9 -23t-9 -23t-23 -9h-320q-14 0 -23 9t-9 23t9 23t23 9h320z" />
    <glyph glyph-name="yanchu" unicode="&#xe8d4;" 
d="M608 512q30 -22 47 -55t17 -73q-2 -68 -47 -113t-113 -47q-68 2 -113 47t-47 113q2 68 47 113t113 47q55 -1 96 -32v203q0 13 9 22t23 9t23 -9t9 -22v-331q0 -14 -9 -23t-23 -9t-23 9t-9 23v128zM512 811q14 -1 23 -10t9 -22.5t-9 -22.5t-23 -9q-154 -4 -256.5 -106.5
t-106.5 -256.5q4 -154 106.5 -256.5t256.5 -106.5q154 4 256.5 106.5t106.5 256.5q0 88 -41 167q-8 16 2 31.5t28 14.5t27 -17q47 -92 48 -196q-5 -181 -125.5 -301.5t-301.5 -125.5q-181 5 -301.5 125.5t-125.5 301.5q5 181 125.5 301.5t301.5 125.5zM512 288q41 1 68 28
t27 68t-27 68t-68 27t-68 -27t-27 -68t27 -68t68 -28zM725 619q-48 1 -81.5 28t-35.5 68q2 40 35.5 67.5t82 27.5t82 -26.5t35.5 -68.5q-2 -43 -35.5 -69.5t-82.5 -26.5zM725 683q24 0 38.5 10t14.5 22t-14.5 21.5t-37.5 9.5t-38 -10t-15 -21t15 -21.5t37 -10.5z" />
    <glyph glyph-name="zhibo" unicode="&#xe8d5;" 
d="M725 532l106 52q17 9 36.5 8t36 -11.5t26 -27t9.5 -36.5v-270q0 -20 -9.5 -36.5t-26.5 -27t-36.5 -11t-37.5 8.5l-104 54v-43q-1 -50 -34 -83t-83 -34h-405q-50 1 -83 34t-35 83v384q2 50 35 83t83 34h405q50 -1 83 -34t34 -83v-44zM725 460v-153l134 -69q5 -3 10 0t6 9
v270q-1 6 -5.5 9t-10.5 1zM661 192v384q0 22 -15.5 37.5t-37.5 15.5h-405q-22 0 -37.5 -15.5t-16.5 -37.5v-384q1 -22 16.5 -37.5t37.5 -15.5h405q22 0 37.5 15.5t15.5 37.5zM288 427q-17 0 -32 8.5t-23.5 23.5t-8.5 32t8.5 32t23.5 23.5t32 8.5q27 -1 45 -19t18 -45.5
t-18 -45.5t-45 -18z" />
  </font>
</defs>
</svg>
